<?xml version="1.0" standalone="yes"?>
<svg version="1.1" viewBox="0.0 0.0 348.0 348.0" fill="none" stroke="none" stroke-linecap="square" stroke-miterlimit="10" xmlns="http://www.w3.org/2000/svg" xmlns:xlink="http://www.w3.org/1999/xlink">
    <clipPath id="p.0">
        <path d="m0 0l348.0 0l0 348.0l-348.0 0l0 -348.0z" clip-rule="nonzero"></path>
    </clipPath>
    <g clip-path="url(#p.0)">
        <path fill="#000000" fill-opacity="0.0" d="m0 0l348.0 0l0 348.0l-348.0 0z" fill-rule="nonzero"></path>
        <path fill="#ffffff" d="m-6.0 0l348.0 0l0 347.9685l-348.0 0z" fill-rule="nonzero"></path>
        <path fill="#000000" fill-opacity="0.0" d="m5.07874 5.7758217l336.9134 0l0 337.6693l-336.9134 0z" fill-rule="nonzero"></path>
        <path stroke="#000000" stroke-width="2.0" stroke-linejoin="round" stroke-linecap="butt" d="m5.07874 5.7758217l336.9134 0l0 337.6693l-336.9134 0z" fill-rule="nonzero"></path>
        <path fill="#ffffff" d="m282.73444 40.553925l0 0c0 -8.375591 6.966034 -15.165352 15.5590515 -15.165352l0 0c4.126526 0 8.084015 1.5977726 11.001923 4.441828c2.9178772 2.844057 4.557129 6.7014217 4.557129 10.723524l0 0c0 8.375595 -6.9660034 15.165356 -15.5590515 15.165356l0 0c-8.593018 0 -15.5590515 -6.7897606 -15.5590515 -15.165356z" fill-rule="nonzero"></path>
        <path stroke="#000000" stroke-width="2.0" stroke-linejoin="round" stroke-linecap="butt" d="m282.73444 40.553925l0 0c0 -8.375591 6.966034 -15.165352 15.5590515 -15.165352l0 0c4.126526 0 8.084015 1.5977726 11.001923 4.441828c2.9178772 2.844057 4.557129 6.7014217 4.557129 10.723524l0 0c0 8.375595 -6.9660034 15.165356 -15.5590515 15.165356l0 0c-8.593018 0 -15.5590515 -6.7897606 -15.5590515 -15.165356z" fill-rule="nonzero"></path>
        <path fill="#000000" fill-opacity="0.0" d="m38.37008 95.73661l107.21261 0l0 100.18897l-107.21261 0z" fill-rule="nonzero"></path>
        <path stroke="#000000" stroke-width="1.0" stroke-linejoin="round" stroke-linecap="butt" d="m38.37008 95.73661l107.21261 0l0 100.18897l-107.21261 0z" fill-rule="nonzero"></path>
        <path fill="#000000" fill-opacity="0.0" d="m152.48032 95.73661l107.212585 0l0 100.18897l-107.212585 0z" fill-rule="nonzero"></path>
        <path stroke="#000000" stroke-width="1.0" stroke-linejoin="round" stroke-linecap="butt" d="m152.48032 95.73661l107.212585 0l0 100.18897l-107.212585 0z" fill-rule="nonzero"></path>>
        <path fill="#000000" fill-opacity="0.0" d="m38.37008 206.52081l107.21261 0l0 100.188965l-107.21261 0z" fill-rule="nonzero"></path>
        <path stroke="#000000" stroke-width="1.0" stroke-linejoin="round" stroke-linecap="butt" d="m38.37008 206.52081l107.21261 0l0 100.188965l-107.21261 0z" fill-rule="nonzero"></path>
        <path fill="#000000" fill-opacity="0.0" d="m152.48032 206.52081l107.212585 0l0 100.188965l-107.212585 0z" fill-rule="nonzero"></path>
        <path stroke="#000000" stroke-width="1.0" stroke-linejoin="round" stroke-linecap="butt" d="m152.48032 206.52081l107.212585 0l0 100.188965l-107.212585 0z" fill-rule="nonzero"></path>
        <path fill="#000000" d="m82.10236 102.049866l19.748032 0l0 5.6377945l-19.748032 0z" fill-rule="nonzero"></path>
        <path stroke="#000000" stroke-width="2.0" stroke-linejoin="round" stroke-linecap="butt" d="m82.10236 102.049866l19.748032 0l0 5.6377945l-19.748032 0z" fill-rule="nonzero"></path>
        <path fill="#000000" d="m196.2126 102.049866l19.748032 0l0 5.6377945l-19.748032 0z" fill-rule="nonzero"></path>
        <path stroke="#000000" stroke-width="2.0" stroke-linejoin="round" stroke-linecap="butt" d="m196.2126 102.049866l19.748032 0l0 5.6377945l-19.748032 0z" fill-rule="nonzero"></path>
        <path fill="#000000" d="m82.10236 213.52493l19.748032 0l0 5.637802l-19.748032 0z" fill-rule="nonzero"></path>
        <path stroke="#000000" stroke-width="2.0" stroke-linejoin="round" stroke-linecap="butt" d="m82.10236 213.52493l19.748032 0l0 5.637802l-19.748032 0z" fill-rule="nonzero"></path>
        <path fill="#000000" d="m196.2126 213.52493l19.748032 0l0 5.637802l-19.748032 0z" fill-rule="nonzero"></path>
        <path stroke="#000000" stroke-width="2.0" stroke-linejoin="round" stroke-linecap="butt" d="m196.2126 213.52493l19.748032 0l0 5.637802l-19.748032 0z" fill-rule="nonzero"></path>
        
        <text x="92" y="170" fill="black" font-size="48px" font-family="Arial" text-anchor="middle">A</text>
        <text x="205" y="170" fill="black" font-size="48px" font-family="Arial" text-anchor="middle">B</text>
        <text x="92" y="285" fill="black" font-size="48px" font-family="Arial" text-anchor="middle">C</text>
        <text x="205" y="285" fill="black" font-size="48px" font-family="Arial" text-anchor="middle">D</text>
        
    </g>
</svg>